<svg width="43" height="54" viewBox="0 0 43 54" fill="none" xmlns="http://www.w3.org/2000/svg">
<rect y="24" width="43" height="30" rx="9" fill="#FAB2B2"/>
<path d="M17.048 33.5664C17.213 32.292 20.0661 33.5664 22 33.5664C23.9339 33.5664 26.787 32.292 26.952 33.5664C27.1584 35.1593 26.6321 37.8142 26.6321 37.8142C26.6321 37.8142 26.5394 41 22 41C17.4606 41 17.3679 37.8142 17.3679 37.8142C17.3679 37.8142 16.8416 35.1593 17.048 33.5664Z" fill="#718795" stroke="#3C446B" stroke-width="1.5"/>
<path d="M14.0767 28.5664C14.3408 27.292 18.9058 28.5664 22 28.5664C25.0942 28.5664 29.6592 27.292 29.9233 28.5664C30.2534 30.1593 29.4113 32.8142 29.4113 32.8142C29.4113 32.8142 29.263 36 22 36C14.737 36 14.5887 32.8142 14.5887 32.8142C14.5887 32.8142 13.7466 30.1593 14.0767 28.5664Z" fill="#718795" stroke="#3C446B" stroke-width="1.5"/>
<path d="M11.1055 23.5664C11.4686 22.292 17.7454 23.5664 22 23.5664C26.2546 23.5664 32.5314 22.292 32.8945 23.5664C33.3484 25.1593 32.1905 27.8142 32.1905 27.8142C32.1905 27.8142 31.9866 31 22 31C12.0134 31 11.8095 27.8142 11.8095 27.8142C11.8095 27.8142 10.6516 25.1593 11.1055 23.5664Z" fill="#718795" stroke="#3C446B" stroke-width="1.5"/>
<path d="M10.7754 1C13.2754 1 18.0279 6.53452 22.5 6.53452C24.5 6.53452 31 1.03452 33.5 1.03452C36 1.03452 42.0001 4 39 14C37.017 20.6096 35.8316 20.5407 35.6933 24C28.8593 25.5154 29 25.5 22 25.5C15 25.5 8.08213 24 8.08213 24C7.94381 20.5407 6.75835 20.6096 4.7754 14C1.7753 4 8.27541 1 10.7754 1Z" fill="white" stroke="#3C446B" stroke-width="1.5"/>
</svg>
