<svg width="43" height="54" viewBox="0 0 43 54" fill="none" xmlns="http://www.w3.org/2000/svg">
<rect y="24" width="43" height="30" rx="9" fill="#FAB2B2"/>
<path d="M10.7754 1C8.27541 1 1.7753 4 4.7754 14C5.68418 17.0291 6.42545 18.6556 6.9752 19.8618C8.07914 22.2839 8.41074 23.0115 7.77541 30C6.7754 41 9.90467 45.3908 11.2754 46C13.5612 47.0159 15.0019 42.6133 16.5216 37.9693C17.9936 33.4709 19.5398 28.746 22 28.5C24.464 28.7464 25.9566 33.4854 27.3753 37.9901C28.8355 42.6264 30.2176 47.0144 32.5 46C33.8707 45.3908 37 41 36 30C35.3646 23.0115 35.6963 22.2839 36.8002 19.8618C37.3499 18.6556 38.0912 17.0291 39 14C42.0001 4 36 1.03452 33.5 1.03452C32.2345 1.03452 29.9442 2.44374 27.7314 3.83553C27.4429 4.60895 27.1346 5.87633 26.784 7.31766C25.8253 11.2586 24.5502 16.5 22.5 16.5C19.7 16.5 16.5 6.72369 16 3.83553C15.6675 3.61307 15.3412 3.39001 15.0224 3.17213C13.3267 2.01294 11.8449 1 10.7754 1Z" fill="white"/>
<path d="M22.5 6.53452C20.3007 6.53452 18.0336 5.19603 16 3.83553C16.5 6.72369 19.7 16.5 22.5 16.5C24.5502 16.5 25.8253 11.2586 26.784 7.31766C27.1346 5.87633 27.4429 4.60895 27.7314 3.83553C25.5726 5.19332 23.4877 6.53452 22.5 6.53452Z" fill="#717171"/>
<path d="M16 3.83553C18.0336 5.19603 20.3007 6.53452 22.5 6.53452C23.4877 6.53452 25.5726 5.19332 27.7314 3.83553M16 3.83553C16.5 6.72369 19.7 16.5 22.5 16.5C24.5502 16.5 25.8253 11.2586 26.784 7.31766C27.1346 5.87633 27.4429 4.60895 27.7314 3.83553M16 3.83553C15.6675 3.61307 15.3412 3.39001 15.0224 3.17213C13.3267 2.01294 11.8449 1 10.7754 1C8.27541 1 1.7753 4 4.7754 14C5.68418 17.0291 6.42545 18.6556 6.9752 19.8618C8.07914 22.2839 8.41074 23.0115 7.77541 30C6.7754 41 9.90467 45.3908 11.2754 46C13.5612 47.0159 15.0019 42.6133 16.5216 37.9693C17.9936 33.4709 19.5398 28.746 22 28.5C24.464 28.7464 25.9566 33.4854 27.3753 37.9901C28.8355 42.6264 30.2176 47.0144 32.5 46C33.8707 45.3908 37 41 36 30C35.3646 23.0115 35.6963 22.2839 36.8002 19.8618C37.3499 18.6556 38.0912 17.0291 39 14C42.0001 4 36 1.03452 33.5 1.03452C32.2345 1.03452 29.9442 2.44374 27.7314 3.83553" stroke="#3C446B" stroke-width="1.5"/>
</svg>
