<svg width="43" height="54" viewBox="0 0 43 54" fill="none" xmlns="http://www.w3.org/2000/svg">
<rect y="24" width="43" height="30" rx="9" fill="#FAB2B2"/>
<path d="M26.5 10.5C26.1 9.7 27.4999 6.5 27.9999 5C28.9998 5.16667 30.7999 5.7 31.9999 6.5C33.9999 6.33333 38.2999 7 39.4999 11C32.4999 15.5 30.4999 12.5 29.9999 11.5C29.4999 10.5 27 11.5 26.5 10.5Z" fill="#718795"/>
<path d="M22.5 7.53452C18.0279 7.53452 13.2754 2 10.7754 2C8.27541 2 1.7753 5 4.7754 15C7.50907 24.1119 8.72713 20.5313 7.77541 31C6.7754 42 9.90467 46.3908 11.2754 47C15.7754 49 17 30 22 29.5C27 30 28 49 32.5 47C33.8707 46.3908 37 42 36 31C35.0483 20.5313 36.2663 24.1119 39 15C39.2775 13.9573 39.7661 11.6974 39.4999 11C32.4999 15.5 30.4999 12.5 29.9999 11.5C29.4999 10.5 27 11.5 26.5 10.5C26.1 9.7 27.4999 6.5 27.9999 5C26.6666 5.84484 23.7 7.53452 22.5 7.53452Z" fill="white"/>
<path d="M27.9999 5C27.4999 6.5 26.1 9.7 26.5 10.5C27 11.5 29.4999 10.5 29.9999 11.5C30.4999 12.5 32.4999 15.5 39.4999 11M27.9999 5C28.9998 5.16667 30.7999 5.7 31.9999 6.5C33.9999 6.33333 38.2999 7 39.4999 11M27.9999 5C26.6666 5.84484 23.7 7.53452 22.5 7.53452C18.0279 7.53452 13.2754 2 10.7754 2C8.27541 2 1.7753 5 4.7754 15C7.50907 24.1119 8.72713 20.5313 7.77541 31C6.7754 42 9.90467 46.3908 11.2754 47C15.7754 49 17 30 22 29.5C27 30 28 49 32.5 47C33.8707 46.3908 37 42 36 31C35.0483 20.5313 36.2663 24.1119 39 15C39.2775 13.9573 39.7661 11.6974 39.4999 11M32.4999 1L32.9999 3M36.9999 1.5L35.4999 3.5M39.4999 4L37.4999 5" stroke="#3C446B" stroke-width="1.5"/>
</svg>
