<svg width="43" height="53" viewBox="0 0 43 53" fill="none" xmlns="http://www.w3.org/2000/svg">
<path d="M0 32C0 27.0294 4.02944 23 9 23H34C38.9706 23 43 27.0294 43 32V44C43 48.9706 38.9706 53 34 53H9C4.02944 53 0 48.9706 0 44V32Z" fill="#FAB2B2"/>
<path d="M10.7754 1C13.2754 1 18.0279 6.53452 22.5 6.53452C24.5 6.53452 31 1.03452 33.5 1.03452C36 1.03452 42.0001 4 39 14C36.2663 23.1119 35.0483 19.5313 36 30C37 41 33.8707 45.3908 32.5 46C28 48 27 29 22 28.5C17 29 15.7754 48 11.2754 46C9.90467 45.3908 6.7754 41 7.77541 30C8.72713 19.5313 7.50907 23.1119 4.7754 14C1.7753 4 8.27541 1 10.7754 1Z" fill="white" stroke="#3C446B" stroke-opacity="0.1" stroke-width="1.5"/>
<path d="M30.1701 8.40466L32.7653 10.9999L30.1699 13.5953C29.2767 14.4886 29.2767 15.9368 30.1699 16.8301C31.0632 17.7233 32.5114 17.7233 33.4046 16.8301L36 14.2347L38.5954 16.8301C39.4886 17.7233 40.9368 17.7233 41.8301 16.8301C42.7233 15.9368 42.7233 14.4886 41.8301 13.5953L39.2347 10.9999L41.8299 8.40466C42.7232 7.51142 42.7232 6.06318 41.8299 5.16994C40.9367 4.27669 39.4885 4.27669 38.5952 5.16994L36 7.7652L33.4048 5.16994C32.5115 4.27669 31.0633 4.27669 30.1701 5.16994C29.2768 6.06318 29.2768 7.51142 30.1701 8.40466Z" fill="#FF9898" stroke="#EE5555"/>
</svg>
