<svg width="43" height="54" viewBox="0 0 43 54" fill="none" xmlns="http://www.w3.org/2000/svg">
<rect y="24" width="43" height="30" rx="9" fill="#FAB2B2"/>
<path d="M10.7754 1C13.2754 1 18.0279 6.53452 22.5 6.53452C24.5 6.53452 31 1.03452 33.5 1.03452C36 1.03452 42.0001 4 39 14C36.2663 23.1119 35.0483 19.5313 36 30C37 41 33.8707 45.3908 32.5 46C28 48 27 29 22 28.5C17 29 15.7754 48 11.2754 46C9.90467 45.3908 6.7754 41 7.77541 30C8.72713 19.5313 7.50907 23.1119 4.7754 14C1.7753 4 8.27541 1 10.7754 1Z" fill="white" stroke="#3C446B" stroke-width="1.5"/>
</svg>
