<svg width="43" height="52" viewBox="0 0 43 52" fill="none" xmlns="http://www.w3.org/2000/svg">
<rect y="22" width="43" height="30" rx="9" fill="#FAB2B2"/>
<path d="M10.7754 1C13.2754 1 18.0279 6.53452 22.5 6.53452C24.5 6.53452 31 1.03452 33.5 1.03452C36 1.03452 42.0001 4 39 14C36.2663 23.1119 35.0483 19.5313 36 30C37 41 33.8707 45.3908 32.5 46C28 48 27 29 22 28.5C17 29 15.7754 48 11.2754 46C9.90467 45.3908 6.7754 41 7.77541 30C8.72713 19.5313 7.50907 23.1119 4.7754 14C1.7753 4 8.27541 1 10.7754 1Z" fill="white" stroke="#3C446B" stroke-width="1.5"/>
<path d="M27.3774 4.06174C29.984 4.73867 31.7629 6.06041 32.7143 6.18434C33.6657 6.06041 35.4446 4.73867 38.0512 4.06174C40.4442 3.44026 44.2086 7.61502 41.472 11.8789C39.3352 15.2083 34.6348 16.1005 32.7143 16.1414C30.7938 16.1005 26.0934 15.2083 23.9566 11.8789C21.22 7.61502 24.9844 3.44026 27.3774 4.06174Z" fill="#48B9D2"/>
<path d="M32.8503 6.19371C31.9381 6.19371 30.1138 4.7724 27.3774 4.06174C24.9844 3.44026 21.22 7.61502 23.9566 11.8789C26.1459 15.2901 31.0262 16.1429 32.8507 16.1429M32.5782 6.19371C33.4904 6.19371 35.3147 4.7724 38.0512 4.06174C40.4442 3.44026 44.2086 7.61502 41.472 11.8789C39.2827 15.2901 34.4023 16.1429 32.5779 16.1429" stroke="#166172"/>
<circle cx="27.2502" cy="8.25" r="1.10714" fill="#329D84" stroke="#0C3C30"/>
<circle cx="38.1784" cy="8.25" r="1.10714" fill="#329D84" stroke="#0C3C30"/>
<circle cx="32.5" cy="16.5" r="4.25" stroke="#329D84" stroke-width="2.5"/>
<circle cx="32.7141" cy="16.1429" r="5.35714" stroke="#0C3C30"/>
<circle cx="32.7141" cy="16.1429" r="3.14286" stroke="#0C3C30"/>
<circle cx="32.7142" cy="11.2857" r="2.92857" fill="#329D84" stroke="#0C3C30"/>
</svg>
