<svg width="43" height="54" viewBox="0 0 43 54" fill="none" xmlns="http://www.w3.org/2000/svg">
<rect y="24" width="43" height="30" rx="9" fill="#FAB2B2"/>
<path d="M39.8212 9C39.8303 2.9729 35.5212 1.03452 33.5 1.03452C32.3659 1.03452 30.4088 2.16628 28.4219 3.40302C28.3082 3.74415 28.1557 4.15236 27.9925 4.58891C27.4383 6.07192 26.7619 7.88194 27.0709 8.5C27.3209 9 28.0709 9 28.8209 9C29.5709 9 30.3209 9 30.5709 9.5C31.0709 10.5 32.8212 13.5 39.8212 9Z" fill="#DBDBDB"/>
<path d="M10.7754 1C8.27541 1 1.7753 4 4.7754 14C5.68418 17.0291 6.42545 18.6556 6.9752 19.8618C8.07914 22.2839 8.41074 23.0115 7.77541 30C6.7754 41 9.90467 45.3908 11.2754 46C13.5612 47.0159 15.0019 42.6133 16.5216 37.9693C17.9936 33.4709 19.5398 28.746 22 28.5C24.464 28.7464 25.9566 33.4854 27.3753 37.9901C28.8355 42.6264 30.2176 47.0144 32.5 46C33.8707 45.3908 37 41 36 30C35.3646 23.0115 35.6963 22.2839 36.8002 19.8618C37.3499 18.6556 38.0912 17.0291 39 14C39.5746 12.0848 39.819 10.4277 39.8212 9C32.8212 13.5 31.0709 10.5 30.5709 9.5C30.3209 9 29.5709 9 28.8209 9C28.0709 9 27.3209 9 27.0709 8.5C26.7619 7.88194 27.4383 6.07192 27.9925 4.58891C28.1557 4.15236 28.3082 3.74415 28.4219 3.40302C28.0968 3.60542 27.7708 3.81063 27.4476 4.01416C25.3917 5.3085 23.4443 6.53452 22.5 6.53452C19.9411 6.53452 17.2904 4.72252 15.0224 3.17213C13.3267 2.01294 11.8449 1 10.7754 1Z" fill="white"/>
<path d="M33.5 1.03452C36 1.03452 42.0001 4 39 14M33.5 1.03452C32.1803 1.03452 29.7461 2.56704 27.4476 4.01416M33.5 1.03452C35.5212 1.03452 39.8303 2.9729 39.8212 9M33.5 1.03452C32.3659 1.03452 30.4088 2.16628 28.4219 3.40302M39 14C38.0912 17.0291 37.3499 18.6556 36.8002 19.8618C35.6963 22.2839 35.3646 23.0115 36 30C37 41 33.8707 45.3908 32.5 46C30.2176 47.0144 28.8355 42.6264 27.3753 37.9901C25.9566 33.4854 24.464 28.7464 22 28.5C19.5398 28.746 17.9936 33.4709 16.5216 37.9693C15.0019 42.6133 13.5612 47.0159 11.2754 46C9.90467 45.3908 6.7754 41 7.77541 30C8.41074 23.0115 8.07914 22.2839 6.9752 19.8618C6.42545 18.6556 5.68418 17.0291 4.7754 14C1.7753 4 8.27541 1 10.7754 1C11.8449 1 13.3267 2.01294 15.0224 3.17213C17.2904 4.72252 19.9411 6.53452 22.5 6.53452C23.4443 6.53452 25.3917 5.3085 27.4476 4.01416M39 14C39.5746 12.0848 39.819 10.4277 39.8212 9M28.4219 3.40302C28.3082 3.74415 28.1557 4.15236 27.9925 4.58891C27.4383 6.07192 26.7619 7.88194 27.0709 8.5C27.3209 9 28.0709 9 28.8209 9C29.5709 9 30.3209 9 30.5709 9.5C31.0709 10.5 32.8212 13.5 39.8212 9M28.4219 3.40302C28.0968 3.60542 27.7708 3.81063 27.4476 4.01416" stroke="#3C446B" stroke-width="1.5"/>
</svg>
